<svg xmlns="http://www.w3.org/2000/svg" viewBox="0 0 24 24"><defs><style>.cls-1,.cls-2{fill:#fff;}.cls-2{fill-rule:evenodd;}</style></defs><title>24px</title><g id="图层_2" data-name="图层 2"><g id="图层_1-2" data-name="图层 1"><path class="cls-1" d="M16.55,1.5a6,6,0,0,1,5.95,6v9.1a6,6,0,0,1-5.95,5.95H7.45A6,6,0,0,1,1.5,16.55V7.45a6,6,0,0,1,6-5.95h9.1m0-1.5H7.45A7.46,7.46,0,0,0,0,7.45v9.1A7.46,7.46,0,0,0,7.45,24h9.1A7.46,7.46,0,0,0,24,16.55V7.45A7.46,7.46,0,0,0,16.55,0Z"/><path class="cls-2" d="M7,4.42H9a1,1,0,0,1,.94,1V6.88a1,1,0,0,1-.94,1H7a1,1,0,0,1-.94-1V5.37a1,1,0,0,1,.94-1Z"/><path class="cls-2" d="M12,8.82H17a1,1,0,0,1,.94.95v1.5a1,1,0,0,1-.94,1H12a1,1,0,0,1-.95-1V9.77A1,1,0,0,1,12,8.82Z"/><path class="cls-2" d="M12,13.42H17a1,1,0,0,1,.94.95v1.5a1,1,0,0,1-.94,1H12a1,1,0,0,1-.95-1v-1.5a1,1,0,0,1,.95-.95Z"/><path class="cls-2" d="M7,8.82H9a1,1,0,0,1,.94.95v8.86a1,1,0,0,1-.94.95H7a1,1,0,0,1-.94-.95V9.77A1,1,0,0,1,7,8.82Z"/></g></g></svg>